<?xml version="1.0" encoding="UTF-8"?>
<svg version="1.1" xmlns="http://www.w3.org/2000/svg" width="96" height="96">
<path d="M0 0 C0.97814163 -0.00960754 1.95628326 -0.01921509 2.96406555 -0.02911377 C4.01514999 -0.03336365 5.06623444 -0.03761353 6.14916992 -0.04199219 C7.23671066 -0.04769226 8.3242514 -0.05339233 9.44474792 -0.05926514 C11.74538197 -0.06870727 14.0460295 -0.07524599 16.34667969 -0.07910156 C19.85595444 -0.08880172 23.36464208 -0.11983102 26.8737793 -0.15136719 C29.11140604 -0.15789815 31.34903695 -0.16314826 33.58666992 -0.16699219 C35.15418755 -0.18551239 35.15418755 -0.18551239 36.75337219 -0.20440674 C43.45706561 -0.18403565 48.78996906 0.28871323 54.02807617 4.87988281 C54.72803711 5.76160156 54.72803711 5.76160156 55.44213867 6.66113281 C55.92424805 7.24894531 56.40635742 7.83675781 56.90307617 8.44238281 C59.17720335 11.80015448 59.20158499 14.80041784 59.22827148 18.73071289 C59.23787903 19.87232376 59.24748657 21.01393463 59.25738525 22.19013977 C59.26163513 23.42451279 59.26588501 24.6588858 59.27026367 25.93066406 C59.27596375 27.19955978 59.28166382 28.46845551 59.28753662 29.77580261 C59.29699068 32.46328314 59.30388538 35.1506519 59.30737305 37.83813477 C59.31285031 41.27126347 59.3368657 44.70399409 59.365345 48.13699818 C59.38852259 51.42235642 59.3904246 54.70773551 59.39526367 57.99316406 C59.40761047 59.22146439 59.41995728 60.44976471 59.43267822 61.71528625 C59.41466989 68.62235626 59.2099431 73.68290147 54.38354492 79.02441406 C53.80475586 79.50265625 53.2259668 79.98089844 52.62963867 80.47363281 C52.05342773 80.96476562 51.4772168 81.45589844 50.88354492 81.96191406 C47.50902065 84.18982579 44.09797688 84.29073147 40.13427734 84.32226562 C39.15613571 84.33187317 38.17799408 84.34148071 37.17021179 84.35137939 C36.11912735 84.35562927 35.06804291 84.35987915 33.98510742 84.36425781 C32.89756668 84.36995789 31.81002594 84.37565796 30.68952942 84.38153076 C28.38889537 84.3909729 26.08824785 84.39751162 23.78759766 84.40136719 C20.27832291 84.41106735 16.76963526 84.44209665 13.26049805 84.47363281 C11.02287131 84.48016378 8.78524039 84.48541388 6.54760742 84.48925781 C5.50259567 84.50160461 4.45758392 84.51395142 3.38090515 84.52667236 C-3.32278827 84.50630128 -8.65569172 84.03355239 -13.89379883 79.44238281 C-14.36043945 78.85457031 -14.82708008 78.26675781 -15.30786133 77.66113281 C-16.03102539 76.77941406 -16.03102539 76.77941406 -16.76879883 75.87988281 C-19.042926 72.52211115 -19.06730764 69.52184778 -19.09399414 65.59155273 C-19.10360168 64.44994186 -19.11320923 63.30833099 -19.12310791 62.13212585 C-19.12735779 60.89775284 -19.13160767 59.66337982 -19.13598633 58.39160156 C-19.14453644 56.48825798 -19.14453644 56.48825798 -19.15325928 54.54646301 C-19.16271333 51.85898248 -19.16960804 49.17161372 -19.1730957 46.48413086 C-19.17857297 43.05100215 -19.20258835 39.61827154 -19.23106766 36.18526745 C-19.25424525 32.8999092 -19.25614726 29.61453011 -19.26098633 26.32910156 C-19.27333313 25.10080124 -19.28567993 23.87250092 -19.29840088 22.60697937 C-19.28039255 15.69990937 -19.07566575 10.63936416 -14.24926758 5.29785156 C-13.67047852 4.81960937 -13.09168945 4.34136719 -12.49536133 3.84863281 C-11.91915039 3.3575 -11.34293945 2.86636719 -10.74926758 2.36035156 C-7.3747433 0.13243984 -3.96369953 0.03153416 0 0 Z M8.06713867 21.16113281 C10.81904726 31.03562832 14.46841704 40.57143307 18.06713867 50.16113281 C19.38713867 50.16113281 20.70713867 50.16113281 22.06713867 50.16113281 C23.49544719 46.35408282 24.91949922 42.54547124 26.33959961 38.73535156 C26.82345278 37.43901475 27.30847352 36.14311311 27.79467773 34.84765625 C28.49272456 32.98714776 29.18624814 31.12494416 29.87963867 29.26269531 C30.29858398 28.1420166 30.7175293 27.02133789 31.14916992 25.86669922 C32.17423837 23.32164918 32.17423837 23.32164918 32.06713867 21.16113281 C31.07713867 21.16113281 30.08713867 21.16113281 29.06713867 21.16113281 C27.72878881 24.95104774 26.39731204 28.74334117 25.06713867 32.53613281 C24.68557617 33.61636719 24.30401367 34.69660156 23.91088867 35.80957031 C23.36948242 37.35644531 23.36948242 37.35644531 22.81713867 38.93457031 C22.48198242 39.8876709 22.14682617 40.84077148 21.80151367 41.82275391 C20.96726382 44.07065454 20.96726382 44.07065454 21.06713867 46.16113281 C20.40713867 46.16113281 19.74713867 46.16113281 19.06713867 46.16113281 C18.90858398 45.52949219 18.7500293 44.89785156 18.58666992 44.24707031 C16.53095222 36.36492619 13.8871173 28.79625283 11.06713867 21.16113281 C10.07713867 21.16113281 9.08713867 21.16113281 8.06713867 21.16113281 Z M-13.93286133 66.16113281 C-13.47999502 71.02944562 -12.34964663 73.64672507 -8.93286133 77.16113281 C-5.87535116 79.03916226 -3.54831273 79.42011135 0.01586914 79.45166016 C1.48792313 79.47079971 1.48792313 79.47079971 2.98971558 79.49032593 C4.57104782 79.4936644 4.57104782 79.4936644 6.18432617 79.49707031 C7.27423859 79.50372711 8.364151 79.51038391 9.48709106 79.51724243 C11.79191399 79.52736405 14.0967662 79.5320596 16.40161133 79.53173828 C19.92212394 79.53610797 23.44137937 79.57242483 26.96166992 79.61035156 C29.20255106 79.61622052 31.44343814 79.62018938 33.68432617 79.62207031 C34.73449921 79.63644135 35.78467224 79.65081238 36.8666687 79.6656189 C42.92414057 79.62788052 46.46675522 79.22270742 51.06713867 75.16113281 C53.07578226 72.78843541 53.07578226 72.78843541 54.06713867 70.16113281 C53.86070669 67.9078487 53.86070669 67.9078487 53.06713867 66.16113281 C52.32778076 66.64791504 51.58842285 67.13469727 50.82666016 67.63623047 C45.83563706 70.11150138 40.36037057 69.5888804 34.91479492 69.55957031 C33.15455238 69.56387558 33.15455238 69.56387558 31.35874939 69.56826782 C28.88173947 69.57030559 26.40471335 69.56479591 23.92773438 69.55224609 C20.14636033 69.53620375 16.36605749 69.55209819 12.5847168 69.57128906 C10.17390716 69.5693063 7.76309818 69.56546194 5.35229492 69.55957031 C4.22606216 69.56564301 3.09982941 69.5717157 1.93946838 69.57797241 C-4.1301458 69.52388666 -8.56256082 69.06054803 -13.93286133 66.16113281 Z " fill="#000000" transform="translate(27.932861328125,6.8388671875)"/>
</svg>
