<svg width="90" height="90" viewBox="0 0 90 90" fill="none" xmlns="http://www.w3.org/2000/svg">
<path d="M79.1307 0C81.754 0 84.2699 1.05357 86.1249 2.92893C87.9799 4.8043 89.022 7.34784 89.022 10V80C89.022 82.6522 87.9799 85.1957 86.1249 87.0711C84.2699 88.9464 81.754 90 79.1307 90H9.89133C7.26799 90 4.75209 88.9464 2.8971 87.0711C1.04212 85.1957 0 82.6522 0 80V10C0 7.34784 1.04212 4.8043 2.8971 2.92893C4.75209 1.05357 7.26799 0 9.89133 0H79.1307ZM76.6578 77.5V51C76.6578 46.677 74.9592 42.531 71.9355 39.4742C68.9119 36.4173 64.811 34.7 60.535 34.7C56.3311 34.7 51.4349 37.3 49.061 41.2V35.65H35.2626V77.5H49.061V52.85C49.061 49 52.1273 45.85 55.9355 45.85C57.7718 45.85 59.533 46.5875 60.8314 47.9003C62.1299 49.213 62.8594 50.9935 62.8594 52.85V77.5H76.6578ZM19.1892 27.8C21.3928 27.8 23.5062 26.915 25.0643 25.3397C26.6225 23.7644 27.4979 21.6278 27.4979 19.4C27.4979 14.75 23.7887 10.95 19.1892 10.95C16.9725 10.95 14.8465 11.8403 13.2791 13.4249C11.7116 15.0096 10.831 17.1589 10.831 19.4C10.831 24.05 14.5897 27.8 19.1892 27.8ZM26.0637 77.5V35.65H12.3642V77.5H26.0637Z" fill="white"/>
</svg>
